{
	"asset":{
		"generator":"Khronos glTF Blender I/O v5.1.20",
		"version":"2.0"
	},
	"scene":0,
	"scenes":[
		{
			"name":"Scene",
			"nodes":[
				3,
				4
			]
		}
	],
	"nodes":[
		{
			"mesh":0,
			"name":"Liquid",
			"rotation":[
				0,
				0,
				1,
				6.123234262925839e-17
			],
			"scale":[
				1.9194163084030151,
				1.3806743621826172,
				1.3806743621826172
			],
			"translation":[
				0,
				-2430.010009765625,
				-27461.193359375
			]
		},
		{
			"mesh":1,
			"name":"Text 2",
			"rotation":[
				0,
				-0.008750717155635357,
				0,
				0.9999617338180542
			],
			"scale":[
				9.658008575439453,
				9.658007621765137,
				9.658008575439453
			],
			"translation":[
				727.863525390625,
				-1477.2818603515625,
				-23129.01171875
			]
		},
		{
			"children":[
				0,
				1
			],
			"name":"Scene 1"
		},
		{
			"children":[
				2
			],
			"name":"Node_0",
			"scale":[
				0.009999999776482582,
				0.009999999776482582,
				0.009999999776482582
			]
		},
		{
			"camera":0,
			"name":"Desctop Camera.001",
			"rotation":[
				2.1583304260275327e-05,
				-0.06801526248455048,
				-4.02754194510635e-05,
				0.9976842999458313
			],
			"translation":[
				6.2137932777404785,
				-14.574800491333008,
				-223.70211791992188
			]
		}
	],
	"cameras":[
		{
			"name":"Camera.001",
			"perspective":{
				"aspectRatio":1.7777777777777777,
				"yfov":0.36128318309783936,
				"zfar":100000,
				"znear":0.0010000000474974513
			},
			"type":"perspective"
		}
	],
	"animations":[
		{
			"channels":[
				{
					"sampler":0,
					"target":{
						"node":1,
						"path":"translation"
					}
				},
				{
					"sampler":1,
					"target":{
						"node":1,
						"path":"rotation"
					}
				},
				{
					"sampler":2,
					"target":{
						"node":1,
						"path":"scale"
					}
				}
			],
			"name":"idleAnimation",
			"samplers":[
				{
					"input":7,
					"interpolation":"STEP",
					"output":8
				},
				{
					"input":9,
					"interpolation":"LINEAR",
					"output":10
				},
				{
					"input":7,
					"interpolation":"STEP",
					"output":11
				}
			]
		},
		{
			"channels":[
				{
					"sampler":0,
					"target":{
						"node":4,
						"path":"translation"
					}
				},
				{
					"sampler":1,
					"target":{
						"node":4,
						"path":"rotation"
					}
				},
				{
					"sampler":2,
					"target":{
						"node":4,
						"path":"scale"
					}
				}
			],
			"name":"CameraScrollAnimation",
			"samplers":[
				{
					"input":12,
					"interpolation":"LINEAR",
					"output":13
				},
				{
					"input":12,
					"interpolation":"LINEAR",
					"output":14
				},
				{
					"input":15,
					"interpolation":"STEP",
					"output":16
				}
			]
		}
	],
	"materials":[
		{
			"doubleSided":true,
			"name":"Material.001",
			"pbrMetallicRoughness":{
				"baseColorFactor":[
					0.800000011920929,
					0.800000011920929,
					0.800000011920929,
					1
				],
				"roughnessFactor":0.18341708183288574
			}
		}
	],
	"meshes":[
		{
			"name":"Mesh_1",
			"primitives":[
				{
					"attributes":{
						"POSITION":0,
						"NORMAL":1
					},
					"indices":2
				}
			]
		},
		{
			"name":"Mesh_0",
			"primitives":[
				{
					"attributes":{
						"POSITION":3,
						"NORMAL":4,
						"TEXCOORD_0":5
					},
					"indices":6,
					"material":0
				}
			]
		}
	],
	"accessors":[
		{
			"bufferView":0,
			"componentType":5126,
			"count":9320,
			"max":[
				8539.25,
				565.6170043945312,
				18915.400390625
			],
			"min":[
				-8539.25,
				-565.6170043945312,
				-18915.400390625
			],
			"type":"VEC3"
		},
		{
			"bufferView":1,
			"componentType":5126,
			"count":9320,
			"type":"VEC3"
		},
		{
			"bufferView":2,
			"componentType":5123,
			"count":13824,
			"type":"SCALAR"
		},
		{
			"bufferView":3,
			"componentType":5126,
			"count":1608,
			"max":[
				13.150693893432617,
				12.38599967956543,
				2
			],
			"min":[
				-13.24930477142334,
				-5.236000061035156,
				0
			],
			"type":"VEC3"
		},
		{
			"bufferView":4,
			"componentType":5126,
			"count":1608,
			"type":"VEC3"
		},
		{
			"bufferView":5,
			"componentType":5126,
			"count":1608,
			"type":"VEC2"
		},
		{
			"bufferView":6,
			"componentType":5123,
			"count":4788,
			"type":"SCALAR"
		},
		{
			"bufferView":7,
			"componentType":5126,
			"count":2,
			"max":[
				15
			],
			"min":[
				0.041666666666666664
			],
			"type":"SCALAR"
		},
		{
			"bufferView":8,
			"componentType":5126,
			"count":2,
			"type":"VEC3"
		},
		{
			"bufferView":9,
			"componentType":5126,
			"count":360,
			"max":[
				15
			],
			"min":[
				0.041666666666666664
			],
			"type":"SCALAR"
		},
		{
			"bufferView":10,
			"componentType":5126,
			"count":360,
			"type":"VEC4"
		},
		{
			"bufferView":11,
			"componentType":5126,
			"count":2,
			"type":"VEC3"
		},
		{
			"bufferView":12,
			"componentType":5126,
			"count":600,
			"max":[
				25
			],
			"min":[
				0.041666666666666664
			],
			"type":"SCALAR"
		},
		{
			"bufferView":13,
			"componentType":5126,
			"count":600,
			"type":"VEC3"
		},
		{
			"bufferView":14,
			"componentType":5126,
			"count":600,
			"type":"VEC4"
		},
		{
			"bufferView":15,
			"componentType":5126,
			"count":2,
			"max":[
				25
			],
			"min":[
				0.041666666666666664
			],
			"type":"SCALAR"
		},
		{
			"bufferView":16,
			"componentType":5126,
			"count":2,
			"type":"VEC3"
		}
	],
	"bufferViews":[
		{
			"buffer":0,
			"byteLength":111840,
			"byteOffset":0,
			"target":34962
		},
		{
			"buffer":0,
			"byteLength":111840,
			"byteOffset":111840,
			"target":34962
		},
		{
			"buffer":0,
			"byteLength":27648,
			"byteOffset":223680,
			"target":34963
		},
		{
			"buffer":0,
			"byteLength":19296,
			"byteOffset":251328,
			"target":34962
		},
		{
			"buffer":0,
			"byteLength":19296,
			"byteOffset":270624,
			"target":34962
		},
		{
			"buffer":0,
			"byteLength":12864,
			"byteOffset":289920,
			"target":34962
		},
		{
			"buffer":0,
			"byteLength":9576,
			"byteOffset":302784,
			"target":34963
		},
		{
			"buffer":0,
			"byteLength":8,
			"byteOffset":312360
		},
		{
			"buffer":0,
			"byteLength":24,
			"byteOffset":312368
		},
		{
			"buffer":0,
			"byteLength":1440,
			"byteOffset":312392
		},
		{
			"buffer":0,
			"byteLength":5760,
			"byteOffset":313832
		},
		{
			"buffer":0,
			"byteLength":24,
			"byteOffset":319592
		},
		{
			"buffer":0,
			"byteLength":2400,
			"byteOffset":319616
		},
		{
			"buffer":0,
			"byteLength":7200,
			"byteOffset":322016
		},
		{
			"buffer":0,
			"byteLength":9600,
			"byteOffset":329216
		},
		{
			"buffer":0,
			"byteLength":8,
			"byteOffset":338816
		},
		{
			"buffer":0,
			"byteLength":24,
			"byteOffset":338824
		}
	],
	"buffers":[
		{
			"byteLength":338848,
			"uri":"easy_only_hard_shader.bin"
		}
	]
}
